<?xml version="1.0" encoding="UTF-8"?>
<svg width="129px" height="26px" viewBox="0 0 129 26" version="1.1" xmlns="http://www.w3.org/2000/svg" xmlns:xlink="http://www.w3.org/1999/xlink">
    <title>Group 5</title>
    <defs>
        <filter id="filter-1">
            <feColorMatrix in="SourceGraphic" type="matrix" values="0 0 0 0 0.352941 0 0 0 0 0.400000 0 0 0 0 0.541176 0 0 0 1.000000 0"></feColorMatrix>
        </filter>
        <polygon id="path-2" points="0 0 7.85753589 0 7.85753589 11.1428571 0 11.1428571"></polygon>
    </defs>
    <g id="Designs" stroke="none" stroke-width="1" fill="none" fill-rule="evenodd">
        <g id="Desktop" transform="translate(-572.000000, -743.000000)">
            <g id="Group-9" transform="translate(165.000000, 130.000000)">
                <g id="Group-8" transform="translate(0.000000, 131.000000)">
                    <g id="Group-7" transform="translate(0.000000, 88.000000)">
                        <g id="Group-5" transform="translate(0.000000, 392.000000)" filter="url(#filter-1)">
                            <g transform="translate(407.000000, 2.000000)">
                                <g id="Group-4" transform="translate(0.000000, -0.003906)">
                                    <path d="M12.8733435,-3.37507799e-14 C19.9836903,-3.37507799e-14 25.7466866,5.78301711 25.7466866,12.9153647 C25.7466866,20.0489212 19.9836903,25.8319384 12.8733435,25.8319384 C5.76299657,25.8319384 0,20.0489212 0,12.9153647 C0,5.78301711 5.76299657,-3.37507799e-14 12.8733435,-3.37507799e-14 Z M12.9926524,2.87034978 C7.39717121,2.87034978 2.86101092,7.42131704 2.86101092,13.0350634 C2.86101092,18.6488094 7.39717121,23.200986 12.9926524,23.200986 L12.9926524,23.200986 L12.9926524,20.6595052 C8.79634278,20.6595052 5.39422249,17.2462797 5.39422249,13.0350634 C5.39422249,8.8250558 8.79634278,5.41183028 12.9926524,5.41183028 C17.1901675,5.41183028 20.5910827,8.8250558 20.5910827,13.0350634 L20.5910827,13.0350634 L23.1242943,13.0350634 C23.1242943,7.42131704 18.588134,2.87034978 12.9926524,2.87034978 Z M12.9926524,6.93647709 C9.63512268,6.93647709 6.91390842,9.66657366 6.91390842,13.0350634 C6.91390842,16.4035528 9.63512268,19.1348587 12.9926524,19.1348587 L12.9926524,19.1348587 L12.9926524,16.9162016 C10.855933,16.9162016 9.12414182,15.1787575 9.12414182,13.0350634 C9.12414182,10.891369 10.855933,9.15392485 12.9926524,9.15392485 C15.1293722,9.15392485 16.8611634,10.891369 16.8611634,13.0350634 L16.8611634,13.0350634 L19.0713965,13.0350634 C19.0713965,9.66657366 16.3501825,6.93647709 12.9926524,6.93647709 Z" id="Combined-Shape" fill="#E86357" fill-rule="nonzero"></path>
                                    <path d="M34.0163817,20.1093749 L34.0163817,6.04417783 L37.8222249,6.04417783 C41.2460376,6.04417783 43.0887023,7.67159614 43.0887023,10.9276414 C43.0887023,14.5645462 40.9061873,16.0710565 37.9017645,16.0710565 L37.1196261,16.0710565 L37.1196261,20.1093749 L34.0163817,20.1093749 Z M37.7812502,13.5392486 C39.2635766,13.5392486 40.0047399,12.7352122 40.0047399,11.0267856 C40.0047399,9.2784599 39.2635766,8.61588549 37.8222249,8.61588549 L37.1003438,8.61588549 L37.1003438,13.5392486 L37.7812502,13.5392486" id="Shape" fill="#231F20" fill-rule="nonzero"></path>
                                    <path d="M47.6345037,20.3112909 C45.270012,20.3112909 43.3875779,18.4819569 43.3875779,14.9260604 C43.3875779,11.3290551 45.2904993,9.4803759 47.653786,9.4803759 C49.9977901,9.4803759 51.9007119,11.3290551 51.9007119,14.8849516 C51.9007119,18.4626117 49.9977901,20.3112909 47.6345037,20.3112909 M47.6140161,11.9517301 C46.7125687,11.9517301 46.152177,12.9165737 46.152177,14.8849516 C46.152177,16.8750932 46.7330564,17.859282 47.653786,17.859282 C48.5552334,17.859282 49.1361124,16.8750932 49.1361124,14.9055059 C49.1361124,12.9165737 48.5347457,11.9517301 47.6140161,11.9517301" id="Shape" fill="#231F20" fill-rule="nonzero"></path>
                                    <path d="M57.0056999,20.2713914 C54.2218182,20.2713914 52.5792075,18.3211497 52.5792075,14.9260604 C52.5792075,11.6095611 54.2615878,9.52027537 57.1659839,9.52027537 C58.0879187,9.52027537 58.788107,9.70042783 59.4690133,9.96279754 L59.0279306,12.4946057 C58.5470783,12.2733445 57.9878917,12.091983 57.4058076,12.091983 C56.0644826,12.091983 55.3630892,13.2575336 55.3630892,14.8849516 C55.3630892,16.6538319 56.0644826,17.6984748 57.4467823,17.6984748 C57.9674043,17.6984748 58.5073086,17.5376676 59.088188,17.3164063 L59.5292703,19.74907 C58.8278769,20.0501302 57.9071473,20.2713914 57.0056999,20.2713914" id="Path" fill="#231F20" fill-rule="nonzero"></path>
                                    <polyline id="Path" fill="#231F20" fill-rule="nonzero" points="63.4737051 15.1267671 63.4737051 20.1105842 60.5693093 20.1105842 60.5693093 5.6222099 63.4737051 5.6222099 63.4737051 14.201823 65.8369918 9.70163683 69.0209809 9.70163683 66.1973295 14.6842449 69.1017256 20.1105842 65.8767614 20.1105842 63.4737051 15.1267671"></polyline>
                                    <path d="M68.7184898,14.9454057 C68.7184898,11.3689546 70.5418722,9.4803759 72.8461066,9.4803759 C75.2889323,9.4803759 76.9315431,11.3484004 76.9315431,15.0058594 L76.9315431,15.9501487 L71.4228319,15.9501487 C71.5240639,17.37686 72.3049969,18.0805432 73.5860646,18.0805432 C74.3477153,18.0805432 75.2491627,17.8387278 76.0698654,17.4578683 L76.5904874,19.5072545 C75.5890133,20.0090217 74.4079726,20.2713914 73.2859839,20.2713914 C70.7419258,20.2713914 68.7184898,18.9244791 68.7184898,14.9454057 Z M74.2476883,14.201823 C74.1874313,12.6348587 73.7258612,11.7111236 72.8461066,11.7111236 C71.9434539,11.7111236 71.4830892,12.6747582 71.4228319,14.201823 L74.2476883,14.201823" id="Shape" fill="#231F20" fill-rule="nonzero"></path>
                                    <path d="M78.490999,16.9947916 L78.490999,12.091983 L77.3702153,12.091983 L77.3702153,9.70042783 L78.490999,9.70042783 L78.490999,6.96912195 L81.3761124,6.96912195 L81.3761124,9.70042783 L83.5791148,9.70042783 L83.5791148,12.091983 L81.3761124,12.091983 L81.3761124,16.5740327 C81.3761124,17.4373141 81.8364774,17.7988283 82.6174104,17.7988283 C82.9584658,17.7988283 83.2585468,17.7383743 83.5791148,17.6585753 L83.5791148,20.029576 C83.1380325,20.1698289 82.5173835,20.2508372 81.7967075,20.2508372 C79.5937051,20.2508372 78.490999,19.3464473 78.490999,16.9947916" id="Path" fill="#231F20" fill-rule="nonzero"></path>
                                    <path d="M93.3311364,20.2713914 C89.6855772,20.2713914 87.4018301,17.9402903 87.4018301,13.0967261 C87.4018301,8.43573304 89.7458343,5.88337061 93.3516237,5.88337061 C94.5531521,5.88337061 95.5546261,6.12397709 96.3355591,6.42624628 L95.8547071,9.2796689 C95.2340581,9.01850818 94.5133821,8.77669271 93.6517047,8.77669271 C91.7295007,8.77669271 90.5870246,10.3037575 90.5870246,13.0568266 C90.5870246,15.889695 91.6692433,17.37686 93.7119617,17.37686 C94.4928947,17.37686 95.2340581,17.1761534 95.8751945,16.8944384 L96.3753291,19.6680618 C95.5148565,20.029576 94.4531251,20.2713914 93.3311364,20.2713914" id="Path" fill="#231F20" fill-rule="nonzero"></path>
                                    <path d="M99.6979098,20.2508372 C98.0757864,20.2508372 96.9345157,19.2061944 96.9345157,16.9548921 C96.9345157,15.9501487 97.2153141,15.1074219 97.7564234,14.5838914 C98.3360974,13.9805618 99.1977751,13.6795016 100.49933,13.6795016 C101.060927,13.6795016 101.621319,13.7605098 102.102171,13.860863 L102.102171,13.2780879 C102.102171,12.3942522 101.700858,11.9118303 100.619844,11.9118303 C99.7786545,11.9118303 98.8772071,12.1524368 98.0757864,12.4946057 L97.5358821,10.2844123 C98.5771261,9.86244435 99.7991418,9.54082961 101.140467,9.54082961 C103.764064,9.54082961 104.94631,10.6652717 104.94631,13.0568266 L104.94631,18.2619047 L105.166851,20.1105842 L102.643281,20.1105842 L102.282943,19.2061944 C101.521292,19.8687688 100.780129,20.2508372 99.6979098,20.2508372 M102.102171,17.9003908 L102.102171,15.4278273 C101.821373,15.3673736 101.500805,15.3480284 101.160954,15.3480284 C100.559587,15.3480284 100.219737,15.4677271 99.9787081,15.688988 C99.7593722,15.9308035 99.6388578,16.2923177 99.6388578,16.8146391 C99.6388578,17.859282 100.099222,18.2812499 100.899438,18.2812499 C101.300751,18.2812499 101.721346,18.1204427 102.102171,17.9003908" id="Shape" fill="#231F20" fill-rule="nonzero"></path>
                                    <path d="M109.771705,20.2907367 C108.368918,20.2907367 107.067363,19.9292225 105.945374,19.3258928 L106.526253,16.9754464 C107.628959,17.577567 108.729255,17.9402903 109.73073,17.9402903 C110.473098,17.9402903 110.873206,17.6186755 110.873206,17.1761534 C110.873206,16.7348402 110.633382,16.5329242 109.230595,15.9707033 C107.287904,15.1872211 106.326199,14.4436385 106.326199,12.6953124 C106.326199,10.7656249 107.648242,9.52027537 109.971758,9.52027537 C111.152799,9.52027537 112.235018,9.80199033 113.216005,10.2844123 L112.635126,12.6348587 C111.733678,12.172991 110.812949,11.8707218 109.971758,11.8707218 C109.351109,11.8707218 109.010054,12.1330915 109.010054,12.5550594 C109.010054,12.9564731 109.230595,13.1571801 110.612895,13.72061 C112.796615,14.5838914 113.55706,15.3879278 113.55706,17.0359004 C113.55706,19.2061944 112.034964,20.2907367 109.771705,20.2907367" id="Path" fill="#231F20" fill-rule="nonzero"></path>
                                    <path d="M115.217748,16.9947916 L115.217748,12.091983 L114.09576,12.091983 L114.09576,9.70042783 L115.217748,9.70042783 L115.217748,6.96912195 L118.101657,6.96912195 L118.101657,9.70042783 L120.304659,9.70042783 L120.304659,12.091983 L118.101657,12.091983 L118.101657,16.5740327 C118.101657,17.4373141 118.563227,17.7988283 119.342955,17.7988283 C119.68401,17.7988283 119.984091,17.7383743 120.304659,17.6585753 L120.304659,20.029576 C119.864782,20.1698289 119.242928,20.2508372 118.522252,20.2508372 C116.319249,20.2508372 115.217748,19.3464473 115.217748,16.9947916" id="Path" fill="#231F20" fill-rule="nonzero"></path>
                                    <g id="Clipped" transform="translate(120.938565, 9.284505)">
                                        <mask id="mask-3" fill="white">
                                            <use xlink:href="#path-2"></use>
                                        </mask>
                                        <g id="Path"></g>
                                        <path d="M4.0721801,11.0062315 C2.66939302,11.0062315 1.367838,10.6447173 0.245849282,10.0413876 L0.826728623,7.69094114 C1.92943473,8.29306183 3.02973102,8.65578505 4.03120507,8.65578505 C4.77236842,8.65578505 5.17368114,8.33417031 5.17368114,7.89164814 C5.17368114,7.45033498 4.93265243,7.24841898 3.53107073,6.68619807 C1.58837934,5.90271593 0.626674641,5.15913326 0.626674641,3.41080721 C0.626674641,1.48111971 1.94871703,0.235770167 4.27223377,0.235770167 C5.45327444,0.235770167 6.5354935,0.517485119 7.51648019,0.999907071 L6.93560115,3.3503535 C6.03415379,2.88848579 5.11342412,2.5862166 4.27223377,2.5862166 C3.65158508,2.5862166 3.31052938,2.84858631 3.31052938,3.27055424 C3.31052938,3.67196793 3.53107073,3.87267493 4.91337014,4.43610483 C7.09588517,5.29938624 7.85633082,6.10342262 7.85633082,7.75139517 C7.85633082,9.92168914 6.33543952,11.0062315 4.0721801,11.0062315" id="Path" fill="#231F20" fill-rule="nonzero" mask="url(#mask-3)"></path>
                                    </g>
                                </g>
                            </g>
                        </g>
                    </g>
                </g>
            </g>
        </g>
    </g>
</svg>