<?xml version="1.0" encoding="UTF-8"?>
<svg width="78px" height="29px" viewBox="0 0 78 29" version="1.1" xmlns="http://www.w3.org/2000/svg" xmlns:xlink="http://www.w3.org/1999/xlink">
    <title>Combined Shape 2</title>
    <defs>
        <filter id="filter-1">
            <feColorMatrix in="SourceGraphic" type="matrix" values="0 0 0 0 0.352941 0 0 0 0 0.400000 0 0 0 0 0.541176 0 0 0 1.000000 0"></feColorMatrix>
        </filter>
    </defs>
    <g id="Designs" stroke="none" stroke-width="1" fill="none" fill-rule="evenodd">
        <g id="Desktop" transform="translate(-301.000000, -741.000000)">
            <g id="Group-9" transform="translate(165.000000, 130.000000)">
                <g id="Group-8" transform="translate(0.000000, 131.000000)">
                    <g id="Group-7" transform="translate(0.000000, 88.000000)">
                        <g id="Combined-Shape-2" transform="translate(0.000000, 392.000000)" filter="url(#filter-1)">
                            <g transform="translate(136.000000, 0.000000)">
                                <path d="M13.0847284,16.3586565 C13.266143,16.3579299 13.4417215,16.3649084 13.6109922,16.3793659 L13.6282697,16.3680982 C13.8459251,16.3969095 14.2787195,16.4532796 14.6788027,16.5810517 C15.0814021,16.7063185 15.4462579,16.9029873 15.7305937,17.1046668 C16.0073809,17.3050937 16.2086806,17.5130365 16.3344929,17.7660754 C16.4603052,18.0191143 16.5232114,18.3197546 16.5609551,18.812053 C16.5861176,19.3056041 16.5861176,19.9895607 16.4728865,21.2672818 C16.3596554,22.541245 16.1331932,24.4089726 15.9570559,25.6052703 C15.7809187,26.8078314 15.6551063,27.3339519 15.4915503,27.7222789 C15.3279943,28.1231326 15.1141133,28.3861928 14.8750699,28.574093 C14.6360265,28.7619931 14.3592394,28.8747332 14.0950335,28.9373666 C13.8308276,29 13.5917842,29 13.365322,29 C13.1388598,29 12.9249788,29 12.6356105,28.9373666 C12.3462421,28.8747332 11.9688051,28.7619931 11.692018,28.5365129 C11.5702815,28.441654 11.4663586,28.3290586 11.3755656,28.1987269 C10.8907,27.7046263 10.6771205,26.7753924 10.3560323,24.5504938 C9.8239989,20.8672982 9.70812276,18.5875207 10.0158798,17.8653011 C10.4245612,16.9081426 11.5334834,16.3649241 13.0847284,16.3586565 Z M13.0984341,0 C16.7366955,0 20.0260825,1.40093198 22.5305022,4.02006568 C24.4368515,5.99653581 25.5083942,8.08861081 26.0566254,10.8444814 C26.2435224,11.7618619 26.2435224,14.2629046 26.0690852,15.2946469 C25.4959344,18.5564442 23.6768037,21.5273647 21.0228665,23.5237238 C20.0759217,24.237242 17.7583991,25.4827911 17.3846051,25.4827911 C17.2475473,25.4827911 17.2350875,25.3410819 17.2973865,24.7680299 C17.4095247,23.8481633 17.5216629,23.6567316 18.0449744,23.4379525 C18.879781,23.0898948 20.3001981,22.0805277 21.1723841,21.2078975 C22.6800198,19.7162219 23.7889419,17.764613 24.2997937,15.7135591 C24.6237485,14.4332043 24.5863691,11.58659 24.2250349,10.2689433 C23.0911931,6.07982103 19.6647484,2.82299603 15.465796,1.95285194 C14.2447357,1.70423935 12.0268914,1.70423935 10.7933713,1.95285194 C6.54457973,2.82299603 3.03091634,6.24141922 1.9593736,10.5424171 C1.67279822,11.7108963 1.67279822,14.5575106 1.9593736,15.7259898 C2.66958216,18.572604 4.51363245,21.1830362 6.93083351,22.736865 C7.40430588,23.0476307 7.97745665,23.3708271 8.21419283,23.4702721 C8.7375044,23.6940235 8.84964259,23.8804829 8.94932099,24.8003495 C9.01161998,25.3597278 8.99916018,25.521326 8.86210239,25.521326 C8.7748838,25.521326 8.13943404,25.2478522 7.46660488,24.9246558 L7.40430588,24.8786625 C3.55422791,22.9892067 1.08718765,19.7920488 0.190082107,15.5382872 C-0.0341942793,14.4406626 -0.0715736771,11.8215289 0.14024291,10.8146479 C0.700933877,8.11098594 1.77247661,5.99653581 3.55422791,4.12696909 C6.12094656,1.4270363 9.42279336,0 13.0984341,0 Z M42.4789526,17.3188925 C44.3698509,17.3188925 45.5299113,18.5697466 45.5299113,20.6292925 C45.5299113,22.6946563 44.3756512,23.9396926 42.4789526,23.9396926 C40.5764537,23.9396926 39.4279939,22.6946563 39.4279939,20.6292925 C39.4279939,18.5755645 40.5938546,17.3188925 42.4789526,17.3188925 Z M70.6452175,17.3188925 C72.1532959,17.3188925 73.0987451,17.987954 73.2031505,19.1457213 L73.2031505,19.1457213 L71.8516802,19.1457213 C71.7472748,18.697741 71.3238528,18.4126626 70.6510178,18.4126626 C69.9955837,18.4126626 69.5025581,18.7268306 69.5025581,19.1864468 C69.5025581,19.5471582 69.8041737,19.7682394 70.4422069,19.9136876 L70.4422069,19.9136876 L71.5616652,20.1696763 C72.7739282,20.4431189 73.3365575,20.9667322 73.3365575,21.9034184 C73.3365575,23.1251829 72.2170992,23.9396926 70.6336169,23.9396926 C69.0501345,23.9396926 68.0524826,23.2531773 67.9422769,22.0954099 L67.9422769,22.0954099 L69.3633508,22.0954099 C69.5025581,22.566662 69.9491813,22.8459224 70.6684187,22.8459224 C71.3934564,22.8459224 71.8980826,22.5259365 71.8980826,22.0546844 C71.8980826,21.693973 71.6254685,21.4670739 71.0222371,21.3332616 L71.0222371,21.3332616 L69.8969786,21.0714549 C68.6789152,20.7921944 68.1046854,20.2278556 68.1046854,19.2678978 C68.1046854,18.1159484 69.1487397,17.3188925 70.6452175,17.3188925 Z M57.2697218,17.3188925 C58.8996066,17.3188925 59.8856579,18.2497607 60.0364657,19.5878837 L60.0364657,19.5878837 L58.6675945,19.5878837 C58.5341876,18.9711835 58.0585629,18.5290211 57.2697218,18.5290211 C56.2836706,18.5290211 55.6978401,19.2911695 55.6978401,20.6118387 C55.6978401,21.9499618 56.2894709,22.7295639 57.2697218,22.7295639 C58.0179608,22.7295639 58.5167867,22.3746704 58.6675945,21.7114268 L58.6675945,21.7114268 L60.0364657,21.7114268 C59.8798576,23.0437319 58.8822057,23.9396926 57.2755221,23.9396926 C55.3672229,23.9396926 54.2419644,22.7062922 54.2419644,20.6118387 C54.2419644,18.5464749 55.3614226,17.3188925 57.2697218,17.3188925 Z M63.9748706,17.3188925 C65.6047553,17.3188925 66.521203,18.1159484 66.521203,19.4657073 L66.521203,19.4657073 L66.521203,23.8116982 L65.1349309,23.8116982 L65.1349309,22.9390092 L65.0363258,22.9390092 C64.6825074,23.5557094 63.9864712,23.9164209 63.157028,23.9164209 C61.9331644,23.9164209 61.0573188,23.1717263 61.0573188,22.008141 C61.0573188,20.8561916 61.9215638,20.192948 63.464444,20.0998612 L63.464444,20.0998612 L65.1001291,20.0009565 L65.1001291,19.4657073 C65.1001291,18.8431891 64.6825074,18.4941136 63.905267,18.4941136 C63.2440326,18.4941136 62.791609,18.7268306 62.6582021,19.1573572 L62.6582021,19.1573572 L61.3009315,19.1573572 C61.4169375,18.0344974 62.4667921,17.3188925 63.9748706,17.3188925 Z M52.7396862,14.985904 L52.7396862,23.8116982 L51.3476138,23.8116982 L51.3476138,22.8051969 L51.2490087,22.8051969 C50.88939,23.5033481 50.158552,23.9164209 49.2769062,23.9164209 C47.6702226,23.9164209 46.6667704,22.6481129 46.6667704,20.6234746 C46.6667704,18.6104721 47.6760229,17.3421642 49.2769062,17.3421642 C50.1469514,17.3421642 50.8661888,17.7610549 51.2026063,18.459206 L51.2026063,18.459206 L51.3012114,18.459206 L51.3012114,14.985904 L52.7396862,14.985904 Z M76.6427294,15.8876826 L76.6427294,17.4876123 L78,17.4876123 L78,18.6395617 L76.6427294,18.6395617 L76.6427294,21.7637881 C76.6427294,22.3921242 76.9095433,22.6713846 77.5127747,22.6713846 C77.7157852,22.6713846 77.825991,22.6597488 78,22.642295 L78,22.642295 L78,23.7709727 C77.7911891,23.8116982 77.5243753,23.8407878 77.2459608,23.8407878 C75.7900851,23.8407878 75.2100549,23.3462641 75.2100549,22.1128637 L75.2100549,22.1128637 L75.2100549,18.6395617 L74.2066027,18.6395617 L74.2066027,17.4876123 L75.2100549,17.4876123 L75.2100549,15.8876826 L76.6427294,15.8876826 Z M35.6055951,15.4164306 C37.276082,15.4164306 38.4187414,16.562562 38.4187414,18.2555786 C38.4187414,19.9195055 37.2354799,21.0598191 35.5417918,21.0598191 L35.5417918,21.0598191 L33.7262974,21.0598191 L33.7262974,23.8116982 L32.2298196,23.8116982 L32.2298196,15.4164306 Z M65.1001291,20.9725502 L63.6674546,21.065637 C62.8612127,21.1179983 62.484193,21.4088946 62.484193,21.9266901 C62.484193,22.4619393 62.9424169,22.7819252 63.5804501,22.7819252 C64.4504953,22.7819252 65.1001291,22.2175864 65.1001291,21.4787097 L65.1001291,21.4787097 L65.1001291,20.9725502 Z M42.4789526,18.5290211 C41.4755004,18.5290211 40.9012705,19.3028053 40.9012705,20.6292925 C40.9012705,21.9615976 41.4755004,22.7295639 42.4789526,22.7295639 C43.4824048,22.7295639 44.0508344,21.9615976 44.0508344,20.6292925 C44.0508344,19.3028053 43.4766045,18.5290211 42.4789526,18.5290211 Z M49.7235294,18.5697466 C48.7432784,18.5697466 48.140047,19.3493487 48.140047,20.6292925 C48.140047,21.9150542 48.7374781,22.6888384 49.7235294,22.6888384 C50.715381,22.6888384 51.3186123,21.9092363 51.3186123,20.6292925 C51.3186123,19.3609846 50.7095807,18.5697466 49.7235294,18.5697466 Z M15.029703,4.53096456 C19.3657132,5.49433837 22.4432836,9.82641285 21.8452132,14.1236816 C21.608477,15.8552683 21.0104067,17.2773324 19.9513237,18.5987083 C19.4280122,19.2662331 18.1571126,20.3862329 17.9328363,20.3862329 C17.898855,20.3862329 17.8648737,20.0369424 17.8589761,19.5867874 L17.8580775,18.5092078 L18.505987,17.7385087 C20.9481077,14.8197968 20.7736705,10.7425503 18.1072734,8.06747874 C17.0731101,7.02579196 15.8769694,6.41420497 14.3319543,6.13202968 C13.3351703,5.94805636 13.1233537,5.94805636 12.0767306,6.11959905 C10.4881062,6.37815615 9.25707803,6.99222926 8.16435363,8.07120793 C5.48549679,10.7189321 5.3110596,14.8173107 7.75318026,17.7385087 L8.3961059,18.5092078 L8.3961059,19.4539356 C8.3961059,19.9760221 8.35498856,20.3986635 8.30390339,20.3986635 C8.25406419,20.3986635 7.89273001,20.1500509 7.50647623,19.8392852 L7.45414508,19.8218823 C6.15832595,18.79014 5.01202442,16.9603513 4.53855205,15.1653684 C4.25197667,14.0814174 4.25197667,12.020419 4.55101185,10.9389542 C5.3359792,8.02024234 7.49152447,5.75786772 10.4818763,4.69504887 C11.5035798,4.33456061 13.7712633,4.25376152 15.029703,4.53096456 Z M35.2111746,16.6731026 L33.7262974,16.6731026 L33.7262974,19.8147828 L35.2053743,19.8147828 C36.2726298,19.8147828 36.8990624,19.2562619 36.8990624,18.2555786 C36.8990624,17.2258056 36.2900307,16.6731026 35.2111746,16.6731026 L35.2111746,16.6731026 Z M14.4191729,9.28816658 C15.581456,9.75001998 16.396275,10.8735762 16.396275,12.1871166 C16.396275,13.9066534 14.9999153,15.3006135 13.2774183,15.3006135 C12.1488858,15.3006135 11.160348,14.7022549 10.6127872,13.8060027 L10.5593386,13.7336794 C10.2355689,13.2528622 10.0648395,12.6654956 10.0582431,11.9955578 C10.0582431,10.8581551 10.6936929,9.86619087 11.7901552,9.28568046 C12.487904,8.92021994 13.7214241,8.92021994 14.4191729,9.28816658 Z M51.4984217,5.42705115 C53.1051053,5.42705115 54.1143577,6.67208737 54.1143577,8.7141795 C54.1143577,10.7446358 53.1167059,12.0013078 51.5158226,12.0013078 C50.6051752,12.0013078 49.9033387,11.6056889 49.5785218,10.9308094 L49.5785218,10.9308094 L49.4799167,10.9308094 L49.4799167,14.0143103 L48.0414419,14.0143103 L48.0414419,5.53177382 L49.427714,5.53177382 L49.427714,6.58481848 L49.5263191,6.58481848 C49.8917381,5.86339562 50.6283764,5.42705115 51.4984217,5.42705115 Z M43.9812307,5.42705115 C45.5879143,5.42705115 46.5971668,6.67208737 46.5971668,8.7141795 C46.5971668,10.7446358 45.5995149,12.0013078 43.9986316,12.0013078 C43.0879843,12.0013078 42.3861478,11.6056889 42.0613309,10.9308094 L42.0613309,10.9308094 L41.9627258,10.9308094 L41.9627258,14.0143103 L40.5242509,14.0143103 L40.5242509,5.53177382 L41.910523,5.53177382 L41.910523,6.58481848 L42.0091282,6.58481848 C42.3745472,5.86339562 43.1111855,5.42705115 43.9812307,5.42705115 Z M61.5387439,5.40377945 C63.348438,5.40377945 64.4330944,6.60809019 64.4330944,8.61527475 L64.4330944,8.61527475 L64.4330944,9.08070885 L60.0016639,9.08070885 L60.0016639,9.15634189 C60.0364657,10.2152045 60.6454974,10.8784481 61.5909466,10.8784481 C62.3043837,10.8784481 62.7974093,10.6166414 63.0062202,10.1453894 L63.0062202,10.1453894 L64.3692911,10.1453894 C64.1082775,11.3031567 63.0468223,12.0245795 61.5503445,12.0245795 C59.6826473,12.0245795 58.5573888,10.7853613 58.5573888,8.7374512 C58.5573888,6.68954115 59.7000482,5.40377945 61.5387439,5.40377945 Z M57.0551107,3.07079101 L57.0551107,11.8965852 L55.6166359,11.8965852 L55.6166359,3.07079101 L57.0551107,3.07079101 Z M36.2610292,3.50131755 L39.236584,11.8965852 L37.6299004,11.8965852 L36.9222636,9.74977037 L33.8423034,9.74977037 L33.123066,11.8965852 L31.6091873,11.8965852 L34.5789417,3.50131755 L36.2610292,3.50131755 Z M43.5346075,6.6546336 C42.5543565,6.6546336 41.9395245,7.44587157 41.9337242,8.7141795 C41.9395245,9.98830535 42.5485562,10.7737254 43.5288072,10.7737254 C44.5264591,10.7737254 45.1180899,9.9999412 45.1180899,8.7141795 C45.1180899,7.42841779 44.5206588,6.6546336 43.5346075,6.6546336 Z M51.0517985,6.6546336 C50.0715475,6.6546336 49.4567155,7.44587157 49.4509152,8.7141795 C49.4567155,9.98830535 50.0657472,10.7737254 51.0459982,10.7737254 C52.04365,10.7737254 52.6352808,9.9999412 52.6352808,8.7141795 C52.6352808,7.42841779 52.0378497,6.6546336 51.0517985,6.6546336 Z M35.4373864,5.10124728 L35.3387812,5.10124728 L34.1903215,8.56291341 L36.5742455,8.56291341 L35.4373864,5.10124728 Z M61.5329436,6.54991092 C60.6744989,6.54991092 60.0712676,7.16661111 60.0074642,8.09747931 L60.0074642,8.09747931 L62.9946196,8.09747931 C62.9656181,7.15497525 62.3971885,6.54991092 61.5329436,6.54991092 Z" id="Combined-Shape" fill="#FFFFFF" fill-rule="nonzero"></path>
                            </g>
                        </g>
                    </g>
                </g>
            </g>
        </g>
    </g>
</svg>