<?xml version="1.0" encoding="UTF-8"?>
<svg width="125px" height="18px" viewBox="0 0 125 18" version="1.1" xmlns="http://www.w3.org/2000/svg" xmlns:xlink="http://www.w3.org/1999/xlink">
    <title>Group 3</title>
    <defs>
        <filter id="filter-1">
            <feColorMatrix in="SourceGraphic" type="matrix" values="0 0 0 0 0.352941 0 0 0 0 0.400000 0 0 0 0 0.541176 0 0 0 1.000000 0"></feColorMatrix>
        </filter>
    </defs>
    <g id="Designs" stroke="none" stroke-width="1" fill="none" fill-rule="evenodd">
        <g id="Desktop" transform="translate(-420.000000, -747.000000)">
            <g id="Group-9" transform="translate(165.000000, 130.000000)">
                <g id="Group-8" transform="translate(0.000000, 131.000000)">
                    <g id="Group-7" transform="translate(0.000000, 88.000000)">
                        <g id="Group-3" transform="translate(0.000000, 392.000000)" filter="url(#filter-1)">
                            <g transform="translate(255.000000, 6.000000)" id="Group" fill-rule="nonzero">
                                <g id="_logo_Podcasts_192px-8" transform="translate(0.000000, 0.000000)">
                                    <polygon id="Shape-8" fill="#FAB908" points="7.71918466 11.9099876 9.92466617 11.9099876 9.92466617 9.26299296 9.92466617 8.20498902 9.92466617 5.55799429 7.71918466 5.55799429 7.71918466 8.20498902 7.71918466 9.26299296"></polygon>
                                    <ellipse id="Oval-0" fill="#0066D9" cx="1.10274069" cy="8.13849134" rx="1.10274069" ry="1.09174885"></ellipse>
                                    <ellipse id="ellipse9-9" fill="#0066D9" cx="1.10274069" cy="9.32949064" rx="1.10274069" ry="1.09174885"></ellipse>
                                    <rect id="Rectangle-path-8" fill="#0066D9" x="0" y="8.13849134" width="2.20548138" height="1.19099876"></rect>
                                    <ellipse id="ellipse12-0" fill="#4285F4" cx="16.5411107" cy="9.32949064" rx="1.10274069" ry="1.09174885"></ellipse>
                                    <ellipse id="ellipse14-0" fill="#4285F4" cx="16.5411107" cy="8.13849134" rx="1.10274069" ry="1.09174885"></ellipse>
                                    <rect id="rect16-5" fill="#4285F4" transform="translate(16.541111, 8.733992) rotate(180.000000) translate(-16.541111, -8.733992) " x="15.4383701" y="8.13849248" width="2.20548138" height="1.19099876"></rect>
                                    <ellipse id="ellipse18-2" fill="#EA4335" cx="4.91220879" cy="11.7114875" rx="1.10274069" ry="1.09174885"></ellipse>
                                    <ellipse id="ellipse20-8" fill="#EA4335" cx="4.91220879" cy="12.9024868" rx="1.10274069" ry="1.09174885"></ellipse>
                                    <rect id="rect22-6" fill="#EA4335" x="3.8094678" y="11.7114875" width="2.20548138" height="1.19099876"></rect>
                                    <ellipse id="ellipse24-4" fill="#EA4335" cx="4.91220879" cy="4.56549541" rx="1.10274069" ry="1.09174885"></ellipse>
                                    <ellipse id="ellipse26-3" fill="#EA4335" cx="4.91220879" cy="8.43624132" rx="1.10274069" ry="1.09174885"></ellipse>
                                    <rect id="rect28-2" fill="#EA4335" x="3.8094678" y="4.56549541" width="2.20548138" height="3.89555838"></rect>
                                    <ellipse id="ellipse30-7" fill="#34A853" cx="12.7316419" cy="5.75649435" rx="1.10274069" ry="1.09174885"></ellipse>
                                    <ellipse id="ellipse32-9" fill="#34A853" cx="12.7316419" cy="4.56549541" rx="1.10274069" ry="1.09174885"></ellipse>
                                    <rect id="rect34-0" fill="#34A853" transform="translate(12.731643, 5.160994) rotate(180.000000) translate(-12.731643, -5.160994) " x="11.6289018" y="4.56549499" width="2.20548138" height="1.19099876"></rect>
                                    <ellipse id="ellipse36-4" fill="#FAB908" cx="8.82192542" cy="2.28274773" rx="1.10274069" ry="1.09174885"></ellipse>
                                    <ellipse id="ellipse38-1" fill="#FAB908" cx="8.82192542" cy="1.09174885" rx="1.10274069" ry="1.09174885"></ellipse>
                                    <rect id="rect40-9" fill="#FAB908" transform="translate(8.821925, 1.687248) rotate(180.000000) translate(-8.821925, -1.687248) " x="7.71918418" y="1.09174891" width="2.20548138" height="1.19099876"></rect>
                                    <ellipse id="ellipse42-1" fill="#FAB908" cx="8.82192542" cy="16.3762331" rx="1.10274069" ry="1.09174885"></ellipse>
                                    <ellipse id="ellipse44-5" fill="#FAB908" cx="8.82192542" cy="15.1852344" rx="1.10274069" ry="1.09174885"></ellipse>
                                    <rect id="rect46-3" fill="#FAB908" transform="translate(8.821925, 15.780734) rotate(180.000000) translate(-8.821925, -15.780734) " x="7.71918418" y="15.1852343" width="2.20548138" height="1.19099876"></rect>
                                    <ellipse id="ellipse48-2" fill="#34A853" cx="12.7316419" cy="12.9024868" rx="1.10274069" ry="1.09174885"></ellipse>
                                    <ellipse id="ellipse50-8" fill="#34A853" cx="12.7316419" cy="9.03174067" rx="1.10274069" ry="1.09174885"></ellipse>
                                    <rect id="rect52-3" fill="#34A853" transform="translate(12.731643, 10.967114) rotate(180.000000) translate(-12.731643, -10.967114) " x="11.6289018" y="9.03174085" width="2.20548138" height="3.87074591"></rect>
                                    <ellipse id="ellipse54-7" fill="#FAB908" cx="8.82192542" cy="5.55799417" rx="1.10274069" ry="1.09174885"></ellipse>
                                    <ellipse id="ellipse56-5" fill="#FAB908" cx="8.82192542" cy="11.9099882" rx="1.10274069" ry="1.09174885"></ellipse>
                                </g>
                                <path d="M70.9501598,12.8022391 L69.6013087,12.8022391 L69.6013087,2.94934463 L73.178695,2.94934463 C74.0681579,2.94934463 74.8378798,3.22685773 75.4878744,3.78188846 C76.137869,4.33691919 76.4628549,5.0364315 76.4628549,5.88044349 C76.4628549,6.72446 76.137869,7.42396778 75.4878744,7.97899851 C74.8378798,8.53402924 74.0681579,8.81154234 73.178695,8.81154234 L70.9501598,8.81154234 L70.9501598,12.8022391 Z M70.9501598,7.60057649 L73.2080177,7.60057649 C73.7749268,7.60057649 74.2294325,7.42168139 74.5715347,7.06389119 C74.9136323,6.70610552 75.0846811,6.31162446 75.0846811,5.88044349 C75.0846811,5.44926251 74.9136323,5.05478598 74.5715347,4.69699578 C74.2294325,4.33921011 73.7749268,4.16031953 73.2080177,4.16031953 L70.9501598,4.16031953 L70.9501598,7.60057649 Z M77.5812439,6.87123702 C78.275227,6.18318382 79.1597936,5.83916174 80.2349667,5.83916174 C81.3101443,5.83916174 82.194711,6.1808929 82.888685,6.86435975 C83.5826635,7.54782659 83.9296482,8.40329768 83.9296482,9.43079113 C83.9296482,10.4582846 83.5826635,11.3137511 82.888685,11.997218 C82.194711,12.6806894 81.3101443,13.022416 80.2349667,13.022416 C79.1597936,13.022416 78.275227,12.6806894 77.5812439,11.997218 C76.8872699,11.3137511 76.5402851,10.4582846 76.5402851,9.43079113 C76.5402851,8.40329768 76.8872699,7.55012203 77.5812439,6.87123702 L77.5812439,6.87123702 Z M78.5782277,11.2059604 C79.0473947,11.6463141 79.599638,11.866491 80.2349667,11.866491 C80.8703,11.866491 81.4200974,11.6440232 81.8843773,11.1990786 C82.3486617,10.7541386 82.5807971,10.164717 82.5807971,9.43079113 C82.5807971,8.6968653 82.3486617,8.10744368 81.8843773,7.66249911 C81.4200974,7.21755906 80.8703,6.99508678 80.2349667,6.99508678 C79.599638,6.99508678 79.049836,7.21755906 78.5855561,7.66249911 C78.1212762,8.10744368 77.8891408,8.6968653 77.8891408,9.43079113 C77.8891408,10.164717 78.1188304,10.7564295 78.5782277,11.2059604 L78.5782277,11.2059604 Z M87.9949866,13.022416 C87.0664314,13.022416 86.2649455,12.6783939 85.5905108,11.9903362 C84.9160853,11.3022875 84.5788748,10.4491119 84.5788748,9.43079113 C84.5788748,8.41246587 84.9160853,7.55929475 85.5905108,6.87123702 C86.2649455,6.18318382 87.0664314,5.83916174 87.9949866,5.83916174 C88.5423519,5.83916174 89.033504,5.9492479 89.4684612,6.16942927 C89.9034185,6.38960612 90.2284089,6.66481925 90.4434463,6.99508678 L90.5020824,6.99508678 L90.4434463,6.05933859 L90.4434463,2.94934463 L91.792302,2.94934463 L91.792302,12.8022391 L90.5020916,12.8022391 L90.5020916,11.866491 L90.4434463,11.866491 C90.2284089,12.196754 89.9034185,12.4719716 89.4684658,12.6921485 C89.033504,12.9123253 88.5423519,13.022416 87.9949866,13.022416 L87.9949866,13.022416 Z M88.2149065,11.866491 C88.8502397,11.866491 89.3902629,11.6463141 89.834999,11.2059604 C90.2797259,10.7656067 90.5020916,10.1738897 90.5020916,9.43079113 C90.5020916,8.68769258 90.2797259,8.095971 89.834999,7.65561731 C89.3902629,7.21526362 88.8502397,6.99508678 88.2149065,6.99508678 C87.589352,6.99508678 87.05177,7.21755906 86.6021515,7.66249911 C86.1525329,8.10744368 85.9277259,8.6968653 85.9277259,9.43079113 C85.9277259,10.164717 86.1525329,10.7541386 86.6021515,11.1990786 C87.05177,11.6440232 87.589352,11.866491 88.2149065,11.866491 Z M96.473416,13.022416 C95.398243,13.022416 94.5136763,12.6806894 93.8196977,11.997218 C93.1257192,11.3137511 92.778739,10.4582846 92.778739,9.43079113 C92.778739,8.40329768 93.1257192,7.54782659 93.8196977,6.86435975 C94.5136763,6.1808929 95.398243,5.83916174 96.473416,5.83916174 C97.2749155,5.83916174 97.9395623,6.02263867 98.46737,6.38960159 C98.9951869,6.7565645 99.3812685,7.21984545 99.6256239,7.77946707 L98.3940634,8.2611025 C98.0226431,7.41708598 97.3531093,6.99508678 96.385448,6.99508678 C95.7892162,6.99508678 95.2638497,7.22443633 94.8093486,7.68313998 C94.3548384,8.1418391 94.1275947,8.72438797 94.1275947,9.43079113 C94.1275947,10.1371898 94.3548384,10.7197341 94.8093486,11.1784423 C95.2638497,11.6371414 95.7892162,11.866491 96.385448,11.866491 C97.3922016,11.866491 98.0861756,11.4444918 98.46737,10.6004752 L99.6696125,11.0821107 C99.4252525,11.632555 99.0318379,12.0935451 98.4893689,12.4650943 C97.9468907,12.8366481 97.2749155,13.022416 96.473416,13.022416 L96.473416,13.022416 Z M102.869923,13.022416 C102.107525,13.022416 101.46976,12.8160027 100.956609,12.4031717 C100.443458,11.9903362 100.186883,11.4444872 100.186883,10.7656067 C100.186883,10.0316809 100.489883,9.45601836 101.095889,9.03860098 C101.7019,8.62117908 102.449637,8.4124704 103.339095,8.4124704 C104.13082,8.4124704 104.780806,8.55008375 105.28907,8.82530594 L105.28907,8.63264724 C105.28907,8.13724821 105.108247,7.74048076 104.746591,7.44232226 C104.384941,7.14416829 103.940214,6.99508678 103.412402,6.99508678 C103.021428,6.99508678 102.667115,7.08224115 102.349449,7.25654989 C102.031782,7.43085411 101.814303,7.66937638 101.697013,7.97212124 L100.465452,7.47672673 C100.631619,7.07306391 100.95905,6.69922825 101.447766,6.35520164 C101.936481,6.01117052 102.581584,5.83916174 103.383084,5.83916174 C104.301874,5.83916174 105.064253,6.09144762 105.67026,6.59601936 C106.27627,7.1005911 106.579285,7.81157157 106.579285,8.72897885 L106.579285,12.8022391 L105.28907,12.8022391 L105.28907,11.866491 L105.230479,11.866491 C104.692897,12.6371122 103.906064,13.022416 102.869987,13.022416 L102.869923,13.022416 Z M103.089843,11.866491 C103.646978,11.866491 104.152805,11.6715413 104.607311,11.2816466 C105.061821,10.8917519 105.28907,10.4307574 105.28907,9.89866296 C104.907871,9.60509082 104.336083,9.45830927 103.573676,9.45830927 C102.918799,9.45830927 102.425201,9.59133175 102.092878,9.85738122 C101.760541,10.1234307 101.594384,10.4353437 101.594384,10.7931294 C101.594384,11.1233969 101.745879,11.3848555 102.048889,11.5775097 C102.35189,11.7701639 102.698875,11.866491 103.089843,11.866491 L103.089843,11.866491 Z M110.527332,13.022416 C109.725824,13.022416 109.063627,12.8389345 108.540702,12.4719716 C108.017777,12.1050087 107.634132,11.6463141 107.389781,11.0958743 L108.59201,10.6279979 C108.973213,11.4720144 109.623204,11.8940136 110.541984,11.8940136 C110.96228,11.8940136 111.306819,11.8068593 111.575615,11.6325505 C111.844415,11.4582463 111.978804,11.2288967 111.978804,10.9445018 C111.978804,10.5041436 111.651372,10.2059942 110.996481,10.0500354 L109.545005,9.71976786 C109.085608,9.6096817 108.650664,9.40097302 108.240143,9.09364633 C107.829616,8.78631511 107.624358,8.37119318 107.624358,7.84827148 C107.624358,7.25195901 107.905369,6.76803719 108.467391,6.39648339 C109.029408,6.02493412 109.696506,5.83916174 110.468678,5.83916174 C111.104011,5.83916174 111.67092,5.97447966 112.16941,6.24511549 C112.6679,6.51574679 113.024649,6.90334605 113.239687,7.40791779 L112.066776,7.86203508 C111.802868,7.26571808 111.255516,6.96756411 110.424698,6.96756411 C110.023956,6.96756411 109.686731,7.04554576 109.413053,7.20150455 C109.139375,7.35745881 109.002532,7.56846294 109.002532,7.83451241 C109.002532,8.21982075 109.320194,8.48127934 109.955531,8.61888817 L111.377685,8.9353921 C112.052119,9.08217817 112.5506,9.33445952 112.873154,9.69224972 C113.195707,10.0500399 113.356986,10.4536892 113.356986,10.9032156 C113.356986,11.5087053 113.093078,12.013277 112.565266,12.4169308 C112.037453,12.8205891 111.358145,13.022416 110.527332,13.022416 L110.527332,13.022416 Z M117.392998,12.9123253 C116.640369,12.9123253 116.066132,12.724262 115.670276,12.3481264 C115.274425,11.9719908 115.076499,11.4399054 115.076499,10.7518477 L115.076499,7.21526362 L113.815611,7.21526362 L113.815611,6.05933859 L115.076499,6.05933859 L115.076499,3.99518351 L116.425341,3.99518351 L116.425341,6.05933859 L118.184718,6.05933859 L118.184718,7.21526362 L116.425341,7.21526362 L116.425341,10.6555206 C116.425341,11.3894464 116.74789,11.7564003 117.392998,11.7564003 C117.637362,11.7564003 117.842598,11.7197094 118.008782,11.6463141 L118.477945,12.7334347 C118.184705,12.8526981 117.823068,12.9123253 117.392998,12.9123253 Z M122.1181,13.022416 C121.316614,13.022416 120.654409,12.8389345 120.131465,12.4719716 C119.608545,12.1050087 119.2249,11.6463141 118.980544,11.0958743 L120.182801,10.6279979 C120.564,11.4720144 121.213971,11.8940136 122.132752,11.8940136 C122.553071,11.8940136 122.897592,11.8068593 123.166392,11.6325505 C123.435187,11.4582463 123.569571,11.2288967 123.569571,10.9445018 C123.569571,10.5041436 123.242144,10.2059942 122.587272,10.0500354 L121.135787,9.71976786 C120.676394,9.6096817 120.241437,9.40097302 119.830915,9.09364633 C119.420402,8.78631511 119.215144,8.37119318 119.215144,7.84827148 C119.215144,7.25195901 119.496137,6.76803719 120.058172,6.39648339 C120.620185,6.02493412 121.287278,5.83916174 122.059459,5.83916174 C122.694793,5.83916174 123.261693,5.97447966 123.760187,6.24511549 C124.258663,6.51574679 124.615436,6.90334605 124.830464,7.40791779 L123.657558,7.86203508 C123.393636,7.26571808 122.846293,6.96756411 122.015471,6.96756411 C121.614723,6.96756411 121.277508,7.04554576 121.003835,7.20150455 C120.730152,7.35745881 120.593322,7.56846294 120.593322,7.83451241 C120.593322,8.21982075 120.91098,8.48127934 121.546313,8.61888817 L122.968471,8.9353921 C123.642892,9.08217817 124.141372,9.33445952 124.463931,9.69224972 C124.78648,10.0500399 124.94775,10.4536892 124.94775,10.9032156 C124.94775,11.5087053 124.68385,12.013277 124.156029,12.4169308 C123.628221,12.8205891 122.948922,13.022416 122.1181,13.022416 L122.1181,13.022416 Z" id="Podcasts-1" fill="#6A6C6F"></path>
                                <path d="M22.5905399,7.66630221 C22.5905399,4.72043012 25.0838344,2.33325604 28.0593694,2.33325604 C29.701042,2.33325604 30.8707388,2.97321814 31.7531385,3.80619208 L30.7065703,4.83216882 C30.0806821,4.24299168 29.2290648,3.78587719 28.0593694,3.78587719 C25.8944118,3.78587719 24.2014338,5.51276975 24.2014338,7.6561425 C24.2014338,9.7995243 25.8944118,11.5264169 28.0593694,11.5264169 C29.4650523,11.5264169 30.2653682,10.9677189 30.7783912,10.4598103 C31.1990711,10.0433211 31.4761048,9.44398879 31.5787112,8.63133427 L28.0593694,8.63133427 L28.0593694,7.17871311 L33.0151792,7.17871311 C33.0664778,7.44282482 33.0972588,7.74757083 33.0972588,8.09294663 C33.0972588,9.19003227 32.7997075,10.5410744 31.8249639,11.4959423 C30.8707388,12.4711295 29.6600022,12.9891977 28.0593694,12.9891977 C25.0838344,12.9891977 22.5905399,10.6020236 22.5905399,7.66630221 L22.5905399,7.66630221 Z M37.0475421,6.19336616 C38.9662465,6.19336616 40.5258376,7.63583213 40.5258376,9.6268364 C40.5258376,11.6076855 38.9662465,13.0603066 37.0475421,13.0603066 C35.1288331,13.0603066 33.569242,11.6076855 33.569242,9.6268364 C33.569242,7.63583213 35.1288331,6.19336616 37.0475421,6.19336616 Z M37.0475421,11.6991093 C38.0941102,11.6991093 39.0072864,10.8458159 39.0072864,9.61667669 C39.0072864,8.37737775 38.0941102,7.53424862 37.0475421,7.53424862 C35.9907151,7.53424862 35.0877887,8.37737775 35.0877887,9.61667669 C35.0877887,10.8458159 36.0009694,11.6991093 37.0475421,11.6991093 Z M44.6402848,6.19336616 C46.5589892,6.19336616 48.1185849,7.63583213 48.1185849,9.6268364 C48.1185849,11.6076855 46.5589892,13.0603066 44.6402848,13.0603066 C42.7215804,13.0603066 41.1619847,11.6076855 41.1619847,9.6268364 C41.1619847,7.63583213 42.7215804,6.19336616 44.6402848,6.19336616 Z M44.6402848,11.6991093 C45.6868575,11.6991093 46.6000336,10.8458159 46.6000336,9.61667669 C46.6000336,8.37737775 45.6971163,7.53424862 44.6402848,7.53424862 C43.5834578,7.53424862 42.6805405,8.37737775 42.6805405,9.61667669 C42.6805405,10.8458159 43.5937167,11.6991093 44.6402848,11.6991093 Z M53.9567916,6.30510486 L55.4137763,6.30510486 L55.4137763,12.4711295 C55.4137763,15.0106766 53.9054884,16.046813 52.1201668,16.046813 C50.4374517,16.046813 49.4216645,14.9294125 49.0420244,14.0151745 L50.3656263,13.4666316 C50.6016156,14.0253342 51.1762051,14.6856157 52.109908,14.6856157 C53.2488192,14.6856157 53.9567916,13.9846999 53.9567916,12.674292 L53.9567916,12.1765432 L53.9054884,12.1765432 C53.5668927,12.5930279 52.9102235,12.9587231 52.079127,12.9587231 C50.3451086,12.9587231 48.7547319,11.4553125 48.7547319,9.53540807 C48.7547319,7.59519782 50.3451086,6.09178718 52.079127,6.09178718 C52.9102235,6.09178718 53.5668927,6.45748239 53.9054884,6.86380739 L53.9567916,6.86380739 L53.9567916,6.30510486 Z M52.2125099,11.6076855 C53.2488192,11.6076855 54.0696569,10.7442369 54.0593935,9.53540807 C54.0593935,8.32658825 53.2488192,7.44282482 52.2125099,7.44282482 C51.1659463,7.44282482 50.283542,8.32658825 50.283542,9.53540807 C50.283542,10.7340772 51.1659463,11.6076855 52.2125099,11.6076855 Z M56.4500856,12.826665 L56.4500856,2.73958104 L57.9686324,2.73958104 L57.9686324,12.826665 L56.4500856,12.826665 Z M62.1446415,11.6991093 C62.9244394,11.6991093 63.45798,11.3232544 63.8581377,10.7543966 L65.0380933,11.5365766 C64.6481989,12.0952746 63.7350182,13.0603066 62.1446415,13.0603066 C60.1746384,13.0603066 58.7073858,11.5467363 58.7073858,9.6268364 C58.7073858,7.58503811 60.1951515,6.19336616 61.9804776,6.19336616 C63.776058,6.19336616 64.6584532,7.605353 64.9457548,8.37737775 L65.0996553,8.76338785 L60.4619264,10.6629728 C60.8210443,11.3435738 61.3648483,11.6991093 62.1446415,11.6991093 L62.1446415,11.6991093 Z M62.0317763,7.5139292 C61.251983,7.5139292 60.1746384,8.19453014 60.2156737,9.5150977 L63.3143383,8.24531963 C63.1501698,7.80852003 62.6371423,7.5139292 62.0317763,7.5139292 Z" id="Combined-Shape-6" fill="#65696D"></path>
                            </g>
                        </g>
                    </g>
                </g>
            </g>
        </g>
    </g>
</svg>